<?xml version="1.0" standalone="no"?>
<!DOCTYPE svg PUBLIC "-//W3C//DTD SVG 20010904//EN"
 "http://www.w3.org/TR/2001/REC-SVG-20010904/DTD/svg10.dtd">
<svg version="1.0" xmlns="http://www.w3.org/2000/svg"
 width="512.000000pt" height="512.000000pt" viewBox="0 0 512.000000 512.000000"
 preserveAspectRatio="xMidYMid meet">

<g transform="translate(0.000000,512.000000) scale(0.100000,-0.100000)"
fill="white" stroke="none">
<path d="M590 4261 c-104 -32 -160 -106 -160 -211 0 -84 53 -161 132 -194 33
-14 248 -16 2000 -16 1889 0 1965 1 2003 19 77 36 125 111 125 196 0 83 -39
148 -115 188 l-40 22 -1960 2 c-1078 1 -1971 -2 -1985 -6z"/>
<path d="M539 2747 c-24 -13 -57 -43 -74 -66 -27 -39 -30 -50 -30 -120 0 -68
3 -82 27 -117 15 -21 44 -50 65 -64 l37 -25 1996 0 1996 0 37 25 c21 14 50 43
65 64 24 35 27 49 27 116 0 67 -3 81 -27 116 -15 21 -44 50 -65 64 l-37 25
-1986 3 -1987 2 -44 -23z"/>
<path d="M560 1264 c-78 -34 -130 -111 -130 -194 0 -88 38 -152 115 -193 l40
-22 1975 0 1975 0 45 25 c119 67 147 225 57 327 -18 20 -50 44 -72 54 -38 18
-125 19 -2005 18 -1734 0 -1969 -2 -2000 -15z"/>
</g>
</svg>
